<?xml version="1.0" encoding="iso-8859-1"?>
<!-- Uploaded to: SVG Repo, www.svgrepo.com, Generator: SVG Repo Mixer Tools -->
<!DOCTYPE svg PUBLIC "-//W3C//DTD SVG 1.1//EN" "http://www.w3.org/Graphics/SVG/1.1/DTD/svg11.dtd">
<svg height="800px" width="800px" version="1.1" id="Capa_1" xmlns="http://www.w3.org/2000/svg" xmlns:xlink="http://www.w3.org/1999/xlink" 
	 viewBox="0 0 481.43 481.43" xml:space="preserve">
<g>
	<linearGradient id="SVGID_1_" gradientUnits="userSpaceOnUse" x1="373.1983" y1="302.811" x2="325.8683" y2="302.811">
		<stop  offset="0" style="stop-color:#3BAD5B"/>
		<stop  offset="0.2216" style="stop-color:#39A958"/>
		<stop  offset="0.4249" style="stop-color:#329E50"/>
		<stop  offset="0.6211" style="stop-color:#268C43"/>
		<stop  offset="0.8116" style="stop-color:#157230"/>
		<stop  offset="0.9987" style="stop-color:#005017"/>
		<stop  offset="1" style="stop-color:#005017"/>
	</linearGradient>
	<path style="fill:url(#SVGID_1_);" d="M373.198,280.39c-0.57,7.15-3.46,25.05-17.63,45.14c-7.94-6.73-19.81-8.25-29.7-8.07v-27.77
		C348.038,279.37,366.078,279.69,373.198,280.39z"/>
	<linearGradient id="SVGID_2_" gradientUnits="userSpaceOnUse" x1="316.4233" y1="193.92" x2="316.4233" y2="183.5122">
		<stop  offset="0" style="stop-color:#A59C16"/>
		<stop  offset="0.4412" style="stop-color:#56520C"/>
		<stop  offset="0.9479" style="stop-color:#000000"/>
	</linearGradient>
	<path style="fill:url(#SVGID_2_);" d="M322.928,183.96c1.03,0.15,2.01,0.34,2.95,0.55c-0.49,3.42-2.9,6.52-7.3,9.41
		c-3.15-3.98-7.13-7.15-11.61-9.35C312.368,183.41,317.798,183.2,322.928,183.96z"/>
	<linearGradient id="SVGID_3_" gradientUnits="userSpaceOnUse" x1="354.1283" y1="95.185" x2="389.6783" y2="95.185">
		<stop  offset="0" style="stop-color:#ED1C24"/>
		<stop  offset="0.1372" style="stop-color:#E81B23"/>
		<stop  offset="0.303" style="stop-color:#D91A21"/>
		<stop  offset="0.4837" style="stop-color:#C1171D"/>
		<stop  offset="0.6749" style="stop-color:#9F1318"/>
		<stop  offset="0.8723" style="stop-color:#730E12"/>
		<stop  offset="1" style="stop-color:#530A0D"/>
	</linearGradient>
	<path style="fill:url(#SVGID_3_);" d="M384.058,95.89l5.62,9.09l-10.64-1.07c-1.31-0.13-2.6,0.39-3.45,1.39l-6.91,8.16l-2.27-10.45
		c-0.28-1.28-1.17-2.35-2.39-2.85l-9.89-4.05l9.23-5.39c1.14-0.66,1.87-1.84,1.97-3.15l0.8-10.66l7.97,7.11
		c0.99,0.88,2.34,1.22,3.62,0.91l10.38-2.54l-4.3,9.78C383.268,93.38,383.358,94.77,384.058,95.89z"/>
	<linearGradient id="SVGID_4_" gradientUnits="userSpaceOnUse" x1="193.6307" y1="90.3388" x2="281.798" y2="90.3388">
		<stop  offset="0" style="stop-color:#00788A"/>
		<stop  offset="0.1494" style="stop-color:#007F8A"/>
		<stop  offset="0.3607" style="stop-color:#00918A"/>
		<stop  offset="0.5686" style="stop-color:#00AA8B"/>
		<stop  offset="0.6505" style="stop-color:#00A689"/>
		<stop  offset="0.7299" style="stop-color:#009A83"/>
		<stop  offset="0.8085" style="stop-color:#00877A"/>
		<stop  offset="0.8864" style="stop-color:#006B6D"/>
		<stop  offset="0.9632" style="stop-color:#00495C"/>
		<stop  offset="1" style="stop-color:#003552"/>
	</linearGradient>
	<path style="fill:url(#SVGID_4_);" d="M281.368,85.64c0.72,2.12,0.53,4.37-0.53,6.34c-1.05,1.93-2.78,3.29-4.9,3.83
		c-25,6.37-51.44,6.37-76.45,0c-2.11-0.54-3.85-1.9-4.9-3.83c-1.06-1.97-1.25-4.22-0.52-6.35l0.07-0.22
		c1.11-3.23,4.18-5.32,7.47-5.32c0.63,0,1.27,0.08,1.91,0.24c22.37,5.68,46.02,5.68,68.39,0c0.64-0.16,1.28-0.24,1.91-0.24
		c3.29,0,6.36,2.09,7.46,5.29l0.05,0.14L281.368,85.64z"/>
	<linearGradient id="SVGID_5_" gradientUnits="userSpaceOnUse" x1="145.3172" y1="305.26" x2="145.3172" y2="276.78">
		<stop  offset="0" style="stop-color:#A59C16"/>
		<stop  offset="0.4412" style="stop-color:#56520C"/>
		<stop  offset="0.9479" style="stop-color:#000000"/>
	</linearGradient>
	<path style="fill:url(#SVGID_5_);" d="M149.558,276.78v28.48l-0.68-0.3c-2.22-0.99-4.02-2.7-5.13-4.86
		c-2.65-5.15-5.22-13.82,2.24-20.66C146.948,278.56,148.138,277.67,149.558,276.78z"/>
	<linearGradient id="SVGID_6_" gradientUnits="userSpaceOnUse" x1="144.9005" y1="457.29" x2="144.9005" y2="425.95">
		<stop  offset="0" style="stop-color:#A59C16"/>
		<stop  offset="0.4412" style="stop-color:#56520C"/>
		<stop  offset="0.9479" style="stop-color:#000000"/>
	</linearGradient>
	<path style="fill:url(#SVGID_6_);" d="M149.558,425.95v31.34l-3.99-1.92c-2.28-3.16-10.8-16.53,0.09-26.51
		C146.708,427.89,148.018,426.92,149.558,425.95z"/>
	<linearGradient id="SVGID_7_" gradientUnits="userSpaceOnUse" x1="158.1083" y1="463.09" x2="317.3183" y2="463.09">
		<stop  offset="0" style="stop-color:#0087AA"/>
		<stop  offset="0.1376" style="stop-color:#0081A3"/>
		<stop  offset="0.3328" style="stop-color:#007191"/>
		<stop  offset="0.5622" style="stop-color:#005772"/>
		<stop  offset="0.8157" style="stop-color:#003248"/>
		<stop  offset="1" style="stop-color:#001425"/>
	</linearGradient>
	<path style="fill:url(#SVGID_7_);" d="M317.318,460.22c-0.65,1.3-1.81,2.32-3.26,2.72c-24.87,6.96-50.55,10.49-76.34,10.49
		c-25.8,0-51.48-3.53-76.35-10.49c-0.09-0.02-0.18-0.06-0.26-0.09l-1.14-0.54c-0.8-0.52-1.44-1.24-1.86-2.09
		c2.95-0.83,5.69-2.32,7.96-4.4c2.17-1.98,4.99-3.07,7.93-3.07c2.94,0,5.75,1.09,7.92,3.06c3.65,3.34,8.38,5.17,13.32,5.17
		s9.67-1.83,13.31-5.16c2.17-1.98,4.99-3.07,7.93-3.07c2.94,0,5.75,1.09,7.92,3.06c3.63,3.33,8.37,5.17,13.32,5.17
		c4.93,0,9.66-1.83,13.3-5.16c2.17-1.98,4.99-3.07,7.93-3.07s5.75,1.09,7.92,3.06c3.65,3.34,8.38,5.17,13.32,5.17
		s9.67-1.83,13.31-5.16c2.18-1.98,4.99-3.07,7.93-3.07s5.75,1.09,7.92,3.06C311.628,457.9,314.368,459.39,317.318,460.22z"/>
	<linearGradient id="SVGID_8_" gradientUnits="userSpaceOnUse" x1="317.8683" y1="441.81" x2="157.5583" y2="441.81">
		<stop  offset="0" style="stop-color:#0087AA"/>
		<stop  offset="0.1376" style="stop-color:#0081A3"/>
		<stop  offset="0.3328" style="stop-color:#007191"/>
		<stop  offset="0.5622" style="stop-color:#005772"/>
		<stop  offset="0.8157" style="stop-color:#003248"/>
		<stop  offset="1" style="stop-color:#001425"/>
	</linearGradient>
	<path style="fill:url(#SVGID_8_);" d="M317.868,438.26v13.68c-1.14-0.5-2.2-1.19-3.13-2.04c-3.65-3.32-8.38-5.15-13.31-5.15
		c-4.94,0-9.67,1.83-13.32,5.16c-2.17,1.98-4.98,3.07-7.92,3.07s-5.75-1.09-7.93-3.08c-3.65-3.32-8.38-5.15-13.31-5.15
		c-4.94,0-9.66,1.83-13.32,5.16c-2.17,1.98-4.98,3.07-7.91,3.07c-2.95,0-5.76-1.09-7.93-3.08c-3.65-3.32-8.38-5.15-13.31-5.15
		c-4.94,0-9.66,1.83-13.32,5.16c-2.17,1.98-4.98,3.07-7.92,3.07s-5.75-1.09-7.93-3.08c-3.65-3.32-8.38-5.15-13.31-5.15
		c-4.94,0-9.66,1.83-13.33,5.16c-0.92,0.85-1.98,1.53-3.11,2.04v-13.69c3.16-0.79,6.1-2.34,8.52-4.55c2.16-1.98,4.98-3.07,7.92-3.07
		c2.94,0,5.75,1.09,7.93,3.08c3.65,3.32,8.37,5.15,13.31,5.15c4.93,0,9.66-1.83,13.32-5.16c2.16-1.98,4.98-3.07,7.92-3.07
		c2.94,0,5.75,1.09,7.92,3.07c3.64,3.33,8.37,5.16,13.32,5.16c4.93,0,9.65-1.83,13.31-5.16c2.17-1.98,4.98-3.07,7.92-3.07
		s5.75,1.09,7.93,3.08c3.65,3.32,8.37,5.15,13.31,5.15c4.93,0,9.66-1.83,13.32-5.16c2.17-1.98,4.98-3.07,7.92-3.07
		s5.75,1.09,7.92,3.08C311.778,435.92,314.718,437.47,317.868,438.26z"/>
	<linearGradient id="SVGID_9_" gradientUnits="userSpaceOnUse" x1="157.5583" y1="419.7" x2="317.8683" y2="419.7">
		<stop  offset="0" style="stop-color:#0087AA"/>
		<stop  offset="0.1376" style="stop-color:#0081A3"/>
		<stop  offset="0.3328" style="stop-color:#007191"/>
		<stop  offset="0.5622" style="stop-color:#005772"/>
		<stop  offset="0.8157" style="stop-color:#003248"/>
		<stop  offset="1" style="stop-color:#001425"/>
	</linearGradient>
	<path style="fill:url(#SVGID_9_);" d="M317.868,416.14v13.7c-1.14-0.51-2.2-1.19-3.12-2.03c-3.65-3.34-8.38-5.17-13.32-5.17
		s-9.67,1.83-13.31,5.16c-2.18,1.98-4.99,3.07-7.93,3.07s-5.76-1.09-7.92-3.06c-3.65-3.34-8.38-5.17-13.32-5.17
		c-4.94,0-9.67,1.83-13.31,5.16c-2.18,1.98-4.99,3.07-7.92,3.07c-2.95,0-5.76-1.09-7.92-3.06c-3.65-3.34-8.38-5.17-13.32-5.17
		c-4.94,0-9.67,1.83-13.31,5.16c-2.18,1.98-4.99,3.07-7.93,3.07s-5.76-1.09-7.92-3.06c-3.65-3.34-8.38-5.17-13.32-5.17
		c-4.94,0-9.67,1.83-13.32,5.17c-0.93,0.84-1.98,1.52-3.12,2.03v-8.03c6.72-2.95,15.49-5.82,26.37-8.63
		c3.31,2.31,7.25,3.57,11.31,3.57c4.93,0,9.66-1.83,13.31-5.15c2.17-1.98,4.99-3.07,7.93-3.07c2.94,0,5.75,1.09,7.92,3.06
		c3.64,3.33,8.37,5.16,13.32,5.16c4.93,0,9.65-1.83,13.3-5.15c2.17-1.98,4.99-3.07,7.93-3.07s5.75,1.09,7.93,3.07
		c3.65,3.32,8.37,5.15,13.31,5.15c4.93,0,9.66-1.83,13.31-5.15c2.18-1.98,4.99-3.07,7.93-3.07s5.75,1.09,7.93,3.07
		C311.778,413.8,314.718,415.35,317.868,416.14z"/>
	<linearGradient id="SVGID_10_" gradientUnits="userSpaceOnUse" x1="317.8683" y1="398" x2="227.7683" y2="398">
		<stop  offset="0" style="stop-color:#0087AA"/>
		<stop  offset="0.1376" style="stop-color:#0081A3"/>
		<stop  offset="0.3328" style="stop-color:#007191"/>
		<stop  offset="0.5622" style="stop-color:#005772"/>
		<stop  offset="0.8157" style="stop-color:#003248"/>
		<stop  offset="1" style="stop-color:#001425"/>
	</linearGradient>
	<path style="fill:url(#SVGID_10_);" d="M264.018,398.49c-2.71,0.38-5.37,0.76-7.98,1.14c-10.12,1.48-19.53,2.97-28.27,4.47
		c0.7,0.49,1.38,1,2.02,1.58c2.17,1.98,4.98,3.07,7.93,3.07c2.93,0,5.74-1.09,7.92-3.07c2.97-2.7,6.64-4.41,10.56-4.96
		c0.9-0.13,1.82-0.19,2.75-0.19c4.93,0,9.66,1.83,13.31,5.15c2.17,1.98,4.99,3.07,7.93,3.07c2.94,0,5.75-1.09,7.93-3.07
		c3.65-3.32,8.37-5.15,13.31-5.15c4.93,0,9.66,1.83,13.31,5.15c0.93,0.85,1.99,1.53,3.13,2.04v-20.47
		C303.698,391.71,286.008,395.4,264.018,398.49z"/>
	<linearGradient id="SVGID_11_" gradientUnits="userSpaceOnUse" x1="121.5034" y1="389.11" x2="356.1558" y2="389.11">
		<stop  offset="0" style="stop-color:#ED1C24"/>
		<stop  offset="0.1372" style="stop-color:#E81B23"/>
		<stop  offset="0.303" style="stop-color:#D91A21"/>
		<stop  offset="0.4837" style="stop-color:#C1171D"/>
		<stop  offset="0.6749" style="stop-color:#9F1318"/>
		<stop  offset="0.8723" style="stop-color:#730E12"/>
		<stop  offset="1" style="stop-color:#530A0D"/>
	</linearGradient>
	<path style="fill:url(#SVGID_11_);" d="M356.138,344.47c0.54,13.72-11.43,24.97-35.6,33.46c-14.48,5.09-33.33,9.22-57.63,12.64
		c-55.74,7.82-92.07,16.02-111.06,25.05c-5,2.37-8.8,4.77-11.6,7.34c-8.66,7.94-9.11,17.66-6.77,25.73
		c-0.59-0.48-1.18-0.99-1.77-1.54c-7.97-7.42-11.3-17.36-9.89-29.57c1.55-13.5,12.44-24.29,33.28-32.97
		c19.68-8.2,45.87-13.46,68.89-17.52c6.26-1.11,14.99-2.08,25.11-3.2c23.94-2.65,53.73-5.94,74.17-13.59
		c14.11-5.29,22.19-12.26,24.1-20.77c1.24,0.69,2.39,1.49,3.41,2.42C354.168,335,355.918,339.1,356.138,344.47z"/>
	<path style="fill:#FF0000;" d="M157.558,373.59c0.56,0.25,1.1,0.54,1.62,0.88c-0.55,0.19-1.08,0.39-1.62,0.59V373.59z"/>
	<linearGradient id="SVGID_12_" gradientUnits="userSpaceOnUse" x1="157.5583" y1="360.48" x2="250.1183" y2="360.48">
		<stop  offset="0" style="stop-color:#0087AA"/>
		<stop  offset="0.1376" style="stop-color:#0081A3"/>
		<stop  offset="0.3328" style="stop-color:#007191"/>
		<stop  offset="0.5622" style="stop-color:#005772"/>
		<stop  offset="0.8157" style="stop-color:#003248"/>
		<stop  offset="1" style="stop-color:#001425"/>
	</linearGradient>
	<path style="fill:url(#SVGID_12_);" d="M245.638,352.66c-2.17-1.99-4.98-3.08-7.93-3.08c-2.93,0-5.74,1.09-7.91,3.07
		c-2.74,2.5-6.09,4.15-9.68,4.82c-1.19,0.23-2.41,0.34-3.64,0.34c-4.94,0-9.66-1.83-13.31-5.15c-2.18-1.99-4.99-3.08-7.93-3.08
		s-5.75,1.09-7.92,3.07c-3.66,3.33-8.39,5.16-13.32,5.16c-4.94,0-9.66-1.83-13.31-5.15c-0.93-0.85-1.99-1.53-3.13-2.04v14.54
		c3.15,0.79,6.1,2.34,8.52,4.56c0.71,0.65,1.51,1.21,2.37,1.66c16.51-5.07,35.05-8.77,52.05-11.8c0.7-0.12,1.4-0.25,2.1-0.37
		c6.51-1.15,15.36-2.13,25.62-3.27c0.62-0.07,1.26-0.14,1.9-0.21C248.508,354.93,246.998,353.9,245.638,352.66z"/>
	<linearGradient id="SVGID_13_" gradientUnits="userSpaceOnUse" x1="244.4383" y1="344.325" x2="264.5483" y2="344.325">
		<stop  offset="0.5089" style="stop-color:#00417A"/>
		<stop  offset="0.6591" style="stop-color:#003564"/>
		<stop  offset="0.9712" style="stop-color:#00172B"/>
		<stop  offset="1" style="stop-color:#001425"/>
	</linearGradient>
	<path style="fill:url(#SVGID_13_);" d="M246.078,338.84l18.47,9.54c-1.71,0.93-3.63,1.43-5.6,1.43c-2.94,0-5.76-1.09-7.92-3.06
		c-1.93-1.77-4.18-3.1-6.59-3.98L246.078,338.84z"/>
	<linearGradient id="SVGID_14_" gradientUnits="userSpaceOnUse" x1="332.7983" y1="340.54" x2="332.7983" y2="325.4488">
		<stop  offset="0" style="stop-color:#A59C16"/>
		<stop  offset="0.4412" style="stop-color:#56520C"/>
		<stop  offset="0.9479" style="stop-color:#000000"/>
	</linearGradient>
	<path style="fill:url(#SVGID_14_);" d="M339.728,326.72c-0.63,5.17-5.29,9.8-13.86,13.82v-15.08
		C329.988,325.39,334.998,325.63,339.728,326.72z"/>
	<linearGradient id="SVGID_15_" gradientUnits="userSpaceOnUse" x1="271.6183" y1="351.385" x2="285.9683" y2="351.385">
		<stop  offset="0.5089" style="stop-color:#00417A"/>
		<stop  offset="0.6591" style="stop-color:#003564"/>
		<stop  offset="0.9712" style="stop-color:#00172B"/>
		<stop  offset="1" style="stop-color:#001425"/>
	</linearGradient>
	<path style="fill:url(#SVGID_15_);" d="M280.188,349.58c2.04,0,4.02,0.54,5.78,1.53c-4.75,0.77-9.56,1.46-14.35,2.08
		c0.21-0.18,0.44-0.35,0.65-0.54C274.438,350.67,277.248,349.58,280.188,349.58z"/>
	<path d="M400.738,107.66c0.8,1.3,0.8,2.94-0.01,4.23c-0.8,1.29-2.28,2.01-3.79,1.86l-16.61-1.67l-10.78,12.73
		c-0.78,0.91-1.9,1.42-3.06,1.42c-0.32,0-0.64-0.04-0.96-0.12c-1.48-0.37-2.62-1.55-2.95-3.03l-3.54-16.31l-15.44-6.33
		c-1.41-0.58-2.37-1.9-2.48-3.42c-0.11-1.52,0.66-2.97,1.98-3.73l14.41-8.42l1.24-16.64c0.12-1.52,1.08-2.84,2.5-3.41
		c1.41-0.57,3.02-0.29,4.16,0.72l12.45,11.11l16.21-3.96c1.48-0.36,3.04,0.15,4.02,1.32c0.98,1.17,1.21,2.79,0.59,4.18l-6.71,15.28
		L400.738,107.66z M389.678,104.98l-5.62-9.09c-0.7-1.12-0.79-2.51-0.26-3.72l4.3-9.78l-10.38,2.54c-1.28,0.31-2.63-0.03-3.62-0.91
		l-7.97-7.11l-0.8,10.66c-0.1,1.31-0.83,2.49-1.97,3.15l-9.23,5.39l9.89,4.05c1.22,0.5,2.11,1.57,2.39,2.85l2.27,10.45l6.91-8.16
		c0.85-1,2.14-1.52,3.45-1.39L389.678,104.98z"/>
	<path d="M381.328,276.77c0.04,1.07,0.77,26.11-20.47,55.11c1.98,3.52,3.09,7.62,3.27,12.28c0.68,17.06-12.19,30.62-38.26,40.35
		v73.4c0,5.91-3.97,11.14-9.65,12.74c-25.57,7.15-51.98,10.78-78.5,10.78c-24.39,0-48.75-2.84-72.34-9.07
		c-2.06-0.55-18.83-7.14-28.09-11.88c-8.6-4.4-26.56-16.56-23.42-43.81c1.85-16.06,13.53-28.63,35.69-38.39v-64.26
		c0,0-9.44-4.08-9.93-4.29c-7.11-3.03-26.88-14.02-23.67-41.85c0.48-4.16,1.67-8.07,3.57-11.75c-36.83-29.62-39.34-69.7-39.43-71.42
		c-0.1-1.96,1.22-3.7,3.14-4.12c0.88-0.19,13.08-2.74,30.25-0.44c-21.4-46.82-7.22-79.75-6.57-81.21c0.74-1.66,2.51-2.61,4.3-2.32
		c1.68,0.28,41.51,7.36,69.3,58.97c4,7.43,7.37,15.13,10.07,22.95c0.41-0.34,0.81-0.69,1.19-1.09c2.2-2.34,3.3-5.39,3.11-8.58
		c-1.36-21.81-0.11-43.67,3.71-65.05c-0.36-0.09-0.73-0.16-1.09-0.26c-4.23-1.08-7.86-3.91-9.95-7.77c-2.11-3.9-2.5-8.55-1.06-12.74
		l0.07-0.22c1.87-5.46,6.53-9.29,11.88-10.4l0.94-57.03h0.03c0.69-10.5,23.08-15.4,38.3-15.4s37.6,4.9,38.29,15.4h0.03l0.93,57.03
		c5.36,1.1,10.02,4.94,11.89,10.39l0.04,0.11l0.05,0.15c1.42,4.16,1.04,8.81-1.07,12.71c-2.09,3.86-5.72,6.69-9.96,7.77
		c-0.36,0.1-0.72,0.17-1.09,0.26c3.82,21.42,5.08,43.28,3.72,65.05c-0.01,0.24-0.02,0.49-0.02,0.73
		c0,5.252,3.565,9.697,8.424,11.077c1.016,0.288,6.696-1.097,10.036-2.217c8.34-2.78,17.02-3.61,25.11-2.42
		c15.63,2.31,24.53,10.99,25.06,24.45c0.53,13-7.32,23.85-23.29,32.28v48.16c29.54-12.68,51.36-8.12,52.32-7.91
		C379.968,273.41,381.248,274.95,381.328,276.77z M355.568,325.53c14.17-20.09,17.06-37.99,17.63-45.14
		c-7.12-0.7-25.16-1.02-47.33,9.3v27.77C335.758,317.28,347.628,318.8,355.568,325.53z M320.538,377.93
		c24.17-8.49,36.14-19.74,35.6-33.46c-0.22-5.37-1.97-9.47-5.36-12.52c-1.02-0.93-2.17-1.73-3.41-2.42
		c-1.91,8.51-9.99,15.48-24.1,20.77c-20.44,7.65-50.23,10.94-74.17,13.59c-10.12,1.12-18.85,2.09-25.11,3.2
		c-23.02,4.06-49.21,9.32-68.89,17.52c-20.84,8.68-31.73,19.47-33.28,32.97c-1.41,12.21,1.92,22.15,9.89,29.57
		c0.59,0.55,1.18,1.06,1.77,1.54c-2.34-8.07-1.89-17.79,6.77-25.73c2.8-2.57,6.6-4.97,11.6-7.34
		c18.99-9.03,55.32-17.23,111.06-25.05C287.208,387.15,306.058,383.02,320.538,377.93z M320.098,226.74
		c14.59-7.16,21.48-15.64,21.07-25.93c-0.24-6.13-2.78-10.58-7.68-13.46c-1.48,6-6.22,11.18-14.17,15.42
		c-2.41,1.3-5.22,2.54-8.32,3.71c-19.03,7.12-46.75,10.19-69.01,12.65c-9.4,1.04-17.52,1.94-23.33,2.97
		c-21.39,3.78-45.72,8.66-63.99,16.27c-19.27,8.03-29.33,17.98-30.76,30.43c-1.66,14.37,4.21,23.11,10.1,28.16
		c-1.97-7.49-1.27-16.22,6.57-23.41c2.61-2.4,6.15-4.64,10.84-6.87c17.66-8.4,51.46-16.02,103.32-23.32
		c22.59-3.16,40.1-7,53.53-11.72C312.668,230.09,316.648,228.44,320.098,226.74z M325.868,340.54c8.57-4.02,13.23-8.65,13.86-13.82
		c-4.73-1.09-9.74-1.33-13.86-1.26V340.54z M325.878,184.51c-0.94-0.21-1.92-0.4-2.95-0.55c-5.13-0.76-10.56-0.55-15.96,0.61
		c4.48,2.2,8.46,5.37,11.61,9.35C322.978,191.03,325.388,187.93,325.878,184.51z M317.868,451.94v-13.68
		c-3.15-0.79-6.09-2.34-8.52-4.54c-2.17-1.99-4.98-3.08-7.92-3.08s-5.75,1.09-7.92,3.07c-3.66,3.33-8.39,5.16-13.32,5.16
		c-4.94,0-9.66-1.83-13.31-5.15c-2.18-1.99-4.99-3.08-7.93-3.08s-5.75,1.09-7.92,3.07c-3.66,3.33-8.38,5.16-13.31,5.16
		c-4.95,0-9.68-1.83-13.32-5.16c-2.17-1.98-4.98-3.07-7.92-3.07c-2.94,0-5.76,1.09-7.92,3.07c-3.66,3.33-8.39,5.16-13.32,5.16
		c-4.94,0-9.66-1.83-13.31-5.15c-2.18-1.99-4.99-3.08-7.93-3.08c-2.94,0-5.76,1.09-7.92,3.07c-2.42,2.21-5.36,3.76-8.52,4.55v13.69
		c1.13-0.51,2.19-1.19,3.11-2.04c3.67-3.33,8.39-5.16,13.33-5.16c4.93,0,9.66,1.83,13.31,5.15c2.18,1.99,4.99,3.08,7.93,3.08
		s5.75-1.09,7.92-3.07c3.66-3.33,8.38-5.16,13.32-5.16c4.93,0,9.66,1.83,13.31,5.15c2.17,1.99,4.98,3.08,7.93,3.08
		c2.93,0,5.74-1.09,7.91-3.07c3.66-3.33,8.38-5.16,13.32-5.16c4.93,0,9.66,1.83,13.31,5.15c2.18,1.99,4.99,3.08,7.93,3.08
		s5.75-1.09,7.92-3.07c3.65-3.33,8.38-5.16,13.32-5.16c4.93,0,9.66,1.83,13.31,5.15C315.668,450.75,316.728,451.44,317.868,451.94z
		 M317.868,429.84v-13.7c-3.15-0.79-6.09-2.34-8.51-4.54c-2.18-1.98-4.99-3.07-7.93-3.07s-5.75,1.09-7.93,3.07
		c-3.65,3.32-8.38,5.15-13.31,5.15c-4.94,0-9.66-1.83-13.31-5.15c-2.18-1.98-4.99-3.07-7.93-3.07s-5.76,1.09-7.93,3.07
		c-3.65,3.32-8.37,5.15-13.3,5.15c-4.95,0-9.68-1.83-13.32-5.16c-2.17-1.97-4.98-3.06-7.92-3.06c-2.94,0-5.76,1.09-7.93,3.07
		c-3.65,3.32-8.38,5.15-13.31,5.15c-4.06,0-8-1.26-11.31-3.57c-10.88,2.81-19.65,5.68-26.37,8.63v8.03
		c1.14-0.51,2.19-1.19,3.12-2.03c3.65-3.34,8.38-5.17,13.32-5.17c4.94,0,9.67,1.83,13.32,5.17c2.16,1.97,4.98,3.06,7.92,3.06
		s5.75-1.09,7.93-3.07c3.64-3.33,8.37-5.16,13.31-5.16c4.94,0,9.67,1.83,13.32,5.17c2.16,1.97,4.97,3.06,7.92,3.06
		c2.93,0,5.74-1.09,7.92-3.07c3.64-3.33,8.37-5.16,13.31-5.16c4.94,0,9.67,1.83,13.32,5.17c2.16,1.97,4.98,3.06,7.92,3.06
		s5.75-1.09,7.93-3.07c3.64-3.33,8.37-5.16,13.31-5.16s9.67,1.83,13.32,5.17C315.668,428.65,316.728,429.33,317.868,429.84z
		 M317.868,407.72v-20.47c-14.17,4.46-31.86,8.15-53.85,11.24c-2.71,0.38-5.37,0.76-7.98,1.14c-10.12,1.48-19.53,2.97-28.27,4.47
		c0.7,0.49,1.38,1,2.02,1.58c2.17,1.98,4.98,3.07,7.93,3.07c2.93,0,5.74-1.09,7.92-3.07c2.97-2.7,6.64-4.41,10.56-4.96
		c0.9-0.13,1.82-0.19,2.75-0.19c4.93,0,9.66,1.83,13.31,5.15c2.17,1.98,4.99,3.07,7.93,3.07s5.75-1.09,7.93-3.07
		c3.65-3.32,8.37-5.15,13.31-5.15c4.93,0,9.66,1.83,13.31,5.15C315.668,406.53,316.728,407.21,317.868,407.72z M317.868,343.73
		v-43.19c0-7.23-3.14-14.1-8.62-18.86c-1.3-1.12-1.73-2.95-1.08-4.54c1.23-3,1.86-6.17,1.86-9.44c0-10.41-6.55-19.83-16.31-23.43
		l0.01-0.03c-10.77,2.67-23.31,5-37.87,7.05c-37.61,5.28-65.43,10.69-84.24,16.39c0,0.02,0,0.03,0,0.05c0,3.15,1.02,6.13,2.97,8.6
		c0.84,1.07,1.07,2.5,0.63,3.78c-0.45,1.29-1.52,2.26-2.84,2.58c-6.02,1.45-11.23,5.01-14.82,10.03v49.47
		c3.16,0.79,6.1,2.35,8.52,4.56c2.16,1.97,4.98,3.06,7.92,3.06c2.94,0,5.75-1.09,7.93-3.07c3.64-3.32,8.37-5.16,13.31-5.16
		s9.67,1.84,13.32,5.17c2.16,1.97,4.98,3.06,7.92,3.06c2.94,0,5.75-1.09,7.93-3.07c3.27-2.99,7.43-4.76,11.83-5.09l2.71-6.49
		l-45.55-23.54l3.67-7.11l44.97,23.24l9.53-22.85l-29.04-15.01l3.67-7.1l28.46,14.7l9.3-22.28l-12.91-7.34l3.96-6.95l12.06,6.86
		l5.83-13.98l7.38,3.08l-6.21,14.88l14.73,8.38l-3.96,6.95l-13.87-7.89l-9.18,21.98l27.83,14.38l-3.67,7.11l-27.25-14.08
		l-9.53,22.84l22.98,11.88c2.51-1.12,5.24-1.73,8.04-1.73c4.94,0,9.67,1.84,13.32,5.17c1.14,1.04,2.43,1.8,3.84,2.32
		C304.738,347.58,311.718,345.84,317.868,343.73z M317.868,279.04v-8.25c-0.22,2.3-0.66,4.57-1.35,6.77
		C316.988,278.04,317.428,278.53,317.868,279.04z M317.868,264.62v-28.1c-2.19,0.91-4.51,1.8-6.94,2.66c-2,0.7-4.09,1.38-6.26,2.05
		C312.088,246.75,316.978,255.25,317.868,264.62z M314.058,462.94c1.45-0.4,2.61-1.42,3.26-2.72c-2.95-0.83-5.69-2.32-7.97-4.41
		c-2.17-1.97-4.98-3.06-7.92-3.06s-5.75,1.09-7.93,3.07c-3.64,3.33-8.37,5.16-13.31,5.16s-9.67-1.83-13.32-5.17
		c-2.17-1.97-4.98-3.06-7.92-3.06s-5.76,1.09-7.93,3.07c-3.64,3.33-8.37,5.16-13.3,5.16c-4.95,0-9.69-1.84-13.32-5.17
		c-2.17-1.97-4.98-3.06-7.92-3.06c-2.94,0-5.76,1.09-7.93,3.07c-3.64,3.33-8.37,5.16-13.31,5.16s-9.67-1.83-13.32-5.17
		c-2.17-1.97-4.98-3.06-7.92-3.06c-2.94,0-5.76,1.09-7.93,3.07c-2.27,2.08-5.01,3.57-7.96,4.4c0.42,0.85,1.06,1.57,1.86,2.09
		l1.14,0.54c0.08,0.03,0.17,0.07,0.26,0.09c24.87,6.96,50.55,10.49,76.35,10.49C263.508,473.43,289.188,469.9,314.058,462.94z
		 M308.188,198.99c1.1-0.42,2.14-0.84,3.14-1.27c-4.52-5.07-10.91-8.2-17.8-8.57c-0.42-0.01-0.9-0.03-1.38-0.03
		c-10.82,0-19.62-8.76-19.62-19.52c0-0.38,0.01-0.81,0.04-1.22c1.31-21.03,0.11-42.14-3.55-62.83c-10.32,2.02-20.81,3.04-31.3,3.04
		c-10.5,0-20.98-1.02-31.3-3.04c-3.66,20.65-4.86,41.76-3.55,62.82c0.34,5.43-1.54,10.6-5.26,14.56c-3.7,3.93-8.93,6.19-14.33,6.19
		c-6.87,0-13.33,2.68-18.18,7.54c-1.8,1.8-3.31,3.83-4.49,6.04c-2.03,3.76-3.05,7.84-3.05,12.14v13.83c2.5-0.91,5.07-1.77,7.71-2.6
		c1.02-14.89,13.45-26.7,28.59-26.7c1.91,0,3.8,0.19,5.65,0.56c1.65-10.89,11.08-19.26,22.42-19.26c10.36,0,19.2,7.04,21.84,16.69
		c0.89-0.1,1.79-0.16,2.69-0.16c8.05,0,15.38,4.24,19.44,11.01C281.188,206.13,296.568,203.34,308.188,198.99z M280.838,91.98
		c1.06-1.97,1.25-4.22,0.53-6.34l-0.04-0.12l-0.05-0.14c-1.1-3.2-4.17-5.29-7.46-5.29c-0.63,0-1.27,0.08-1.91,0.24
		c-22.37,5.68-46.02,5.68-68.39,0c-0.64-0.16-1.28-0.24-1.91-0.24c-3.29,0-6.36,2.09-7.47,5.32l-0.07,0.22
		c-0.73,2.13-0.54,4.38,0.52,6.35c1.05,1.93,2.79,3.29,4.9,3.83c25.01,6.37,51.45,6.37,76.45,0
		C278.058,95.27,279.788,93.91,280.838,91.98z M285.968,351.11c-1.76-0.99-3.74-1.53-5.78-1.53c-2.94,0-5.75,1.09-7.92,3.07
		c-0.21,0.19-0.44,0.36-0.65,0.54C276.408,352.57,281.218,351.88,285.968,351.11z M268.978,72.8l-0.78-47.24
		c-8.04,4.2-20.74,6.21-30.48,6.21c-9.75,0-22.45-2.01-30.5-6.21l-0.77,47.24C226.928,77.84,248.498,77.84,268.978,72.8z
		 M264.548,348.38l-18.47-9.54l-1.64,3.93c2.41,0.88,4.66,2.21,6.59,3.98c2.16,1.97,4.98,3.06,7.92,3.06
		C260.918,349.81,262.838,349.31,264.548,348.38z M268.018,15.89c-1.05-2.43-13.5-7.89-30.3-7.89c-16.81,0-29.25,5.46-30.3,7.89
		c1.05,2.42,13.49,7.88,30.3,7.88C254.518,23.77,266.968,18.31,268.018,15.89z M256.718,209.39c-2.69-2.63-6.35-4.19-10.26-4.19
		c-1.57,0-3.14,0.26-4.66,0.77c-1.18,0.4-2.47,0.22-3.5-0.47c-1.04-0.7-1.69-1.83-1.76-3.07c-0.48-7.72-6.89-13.76-14.61-13.76
		c-8.09,0-14.67,6.58-14.67,14.67c0,0.54,0.02,1.04,0.07,1.49c0.16,1.41-0.44,2.79-1.57,3.64c-1.14,0.85-2.63,1.04-3.94,0.49
		c-2.53-1.05-5.21-1.59-7.96-1.59c-9.87,0-18.13,6.96-20.17,16.22c14.2-3.91,29.51-6.89,43.58-9.37c6.06-1.07,14.3-1.98,23.84-3.04
		C246.088,210.63,251.348,210.04,256.718,209.39z M248.218,355.94c0.62-0.07,1.26-0.14,1.9-0.21c-1.61-0.8-3.12-1.83-4.48-3.07
		c-2.17-1.99-4.98-3.08-7.93-3.08c-2.93,0-5.74,1.09-7.91,3.07c-2.74,2.5-6.09,4.15-9.68,4.82c-1.19,0.23-2.41,0.34-3.64,0.34
		c-4.94,0-9.66-1.83-13.31-5.15c-2.18-1.99-4.99-3.08-7.93-3.08s-5.75,1.09-7.92,3.07c-3.66,3.33-8.39,5.16-13.32,5.16
		c-4.94,0-9.66-1.83-13.31-5.15c-0.93-0.85-1.99-1.53-3.13-2.04v14.54c3.15,0.79,6.1,2.34,8.52,4.56c0.71,0.65,1.51,1.21,2.37,1.66
		c16.51-5.07,35.05-8.77,52.05-11.8c0.7-0.12,1.4-0.25,2.1-0.37C229.108,358.06,237.958,357.08,248.218,355.94z M183.018,181.13
		c-2.55-7.41-5.75-14.7-9.54-21.75c-21.49-39.9-50.72-51.3-60.35-54.07c-2.85,9.29-9.08,38.58,10.08,76.6
		c10.1,2.3,21.31,6.38,32.63,13.36c1.08-1.51,2.27-2.94,3.6-4.27C165.738,184.69,174.098,181.19,183.018,181.13z M165.458,276.56
		c-0.88-2-1.45-4.11-1.69-6.3c-2.24,0.81-4.32,1.61-6.21,2.43v8.53C159.958,279.32,162.608,277.74,165.458,276.56z M159.178,374.47
		c-0.52-0.34-1.06-0.63-1.62-0.88v1.47C158.098,374.86,158.628,374.66,159.178,374.47z M149.558,214.84c0-4.31,0.84-8.58,2.43-12.54
		c-11.76-7.31-23.45-11.21-33.71-13.19l-0.27,0.14c-0.03-0.07-0.07-0.14-0.11-0.21c-13.27-2.51-24.08-1.83-29.39-1.18
		c1.5,10.03,8.1,39.21,35.48,61.59c5.61-6.74,14.09-12.57,25.57-17.6V214.84z M149.558,457.29v-31.34c-1.54,0.97-2.85,1.94-3.9,2.91
		c-10.89,9.98-2.37,23.35-0.09,26.51L149.558,457.29z M149.558,305.26v-28.48c-1.42,0.89-2.61,1.78-3.57,2.66
		c-7.46,6.84-4.89,15.51-2.24,20.66c1.11,2.16,2.91,3.87,5.13,4.86L149.558,305.26z"/>
	<linearGradient id="SVGID_16_" gradientUnits="userSpaceOnUse" x1="123.6228" y1="242.155" x2="341.1855" y2="242.155">
		<stop  offset="0" style="stop-color:#ED1C24"/>
		<stop  offset="0.1372" style="stop-color:#E81B23"/>
		<stop  offset="0.303" style="stop-color:#D91A21"/>
		<stop  offset="0.4837" style="stop-color:#C1171D"/>
		<stop  offset="0.6749" style="stop-color:#9F1318"/>
		<stop  offset="0.8723" style="stop-color:#730E12"/>
		<stop  offset="1" style="stop-color:#530A0D"/>
	</linearGradient>
	<path style="fill:url(#SVGID_16_);" d="M341.168,200.81c0.41,10.29-6.48,18.77-21.07,25.93c-3.45,1.7-7.43,3.35-11.83,4.9
		c-13.43,4.72-30.94,8.56-53.53,11.72c-51.86,7.3-85.66,14.92-103.32,23.32c-4.69,2.23-8.23,4.47-10.84,6.87
		c-7.84,7.19-8.54,15.92-6.57,23.41c-5.89-5.05-11.76-13.79-10.1-28.16c1.43-12.45,11.49-22.4,30.76-30.43
		c18.27-7.61,42.6-12.49,63.99-16.27c5.81-1.03,13.93-1.93,23.33-2.97c22.26-2.46,49.98-5.53,69.01-12.65
		c3.1-1.17,5.91-2.41,8.32-3.71c7.95-4.24,12.69-9.42,14.17-15.42C338.388,190.23,340.928,194.68,341.168,200.81z"/>
	<linearGradient id="SVGID_17_" gradientUnits="userSpaceOnUse" x1="157.5583" y1="297.025" x2="317.8683" y2="297.025">
		<stop  offset="0" style="stop-color:#002C43"/>
		<stop  offset="0.5344" style="stop-color:#006D94"/>
		<stop  offset="0.6192" style="stop-color:#00688D"/>
		<stop  offset="0.7395" style="stop-color:#00597B"/>
		<stop  offset="0.8802" style="stop-color:#00405D"/>
		<stop  offset="1" style="stop-color:#00273D"/>
	</linearGradient>
	<path style="fill:url(#SVGID_17_);" d="M317.868,300.54v43.19c-6.15,2.11-13.13,3.85-20.52,5.34c-1.41-0.52-2.7-1.28-3.84-2.32
		c-3.65-3.33-8.38-5.17-13.32-5.17c-2.8,0-5.53,0.61-8.04,1.73l-22.98-11.88l9.53-22.84l27.25,14.08l3.67-7.11l-27.83-14.38
		l9.18-21.98l13.87,7.89l3.96-6.95l-14.73-8.38l6.21-14.88l-7.38-3.08l-5.83,13.98l-12.06-6.86l-3.96,6.95l12.91,7.34l-9.3,22.28
		l-28.46-14.7l-3.67,7.1l29.04,15.01l-9.53,22.85l-44.97-23.24l-3.67,7.11l45.55,23.54l-2.71,6.49c-4.4,0.33-8.56,2.1-11.83,5.09
		c-2.18,1.98-4.99,3.07-7.93,3.07c-2.94,0-5.76-1.09-7.92-3.06c-3.65-3.33-8.38-5.17-13.32-5.17s-9.67,1.84-13.31,5.16
		c-2.18,1.98-4.99,3.07-7.93,3.07c-2.94,0-5.76-1.09-7.92-3.06c-2.42-2.21-5.36-3.77-8.52-4.56v-49.47
		c3.59-5.02,8.8-8.58,14.82-10.03c1.32-0.32,2.39-1.29,2.84-2.58c0.44-1.28,0.21-2.71-0.63-3.78c-1.95-2.47-2.97-5.45-2.97-8.6
		c0-0.02,0-0.03,0-0.05c18.81-5.7,46.63-11.11,84.24-16.39c14.56-2.05,27.1-4.38,37.87-7.05l-0.01,0.03
		c9.76,3.6,16.31,13.02,16.31,23.43c0,3.27-0.63,6.44-1.86,9.44c-0.65,1.59-0.22,3.42,1.08,4.54
		C314.728,286.44,317.868,293.31,317.868,300.54z M228.398,269.03c2.16-0.46,3.54-2.59,3.07-4.75c-0.46-2.16-2.59-3.54-4.75-3.07
		c-6.97,1.5-12.93,5.62-16.79,11.6c-1.13,1.75-2.04,3.6-2.73,5.51c-6.19-6.41-15.46-9.58-24.8-7.56c-2.16,0.46-3.53,2.59-3.07,4.75
		c0.47,2.16,2.6,3.54,4.76,3.07c10.06-2.17,20.01,4.25,22.18,14.31c0.4,1.88,2.06,3.16,3.9,3.16c0.28,0,0.56-0.03,0.85-0.09
		c1.87-0.4,3.16-2.06,3.16-3.9c0-0.28-0.03-0.57-0.09-0.85c-1.06-4.88-0.15-9.87,2.56-14.06
		C219.348,272.97,223.518,270.08,228.398,269.03z"/>
	<linearGradient id="SVGID_18_" gradientUnits="userSpaceOnUse" x1="159.2745" y1="165.2238" x2="312.2765" y2="170.5667">
		<stop  offset="0" style="stop-color:#00788A"/>
		<stop  offset="0.0574" style="stop-color:#077C8D"/>
		<stop  offset="0.1387" style="stop-color:#198995"/>
		<stop  offset="0.2344" style="stop-color:#389EA3"/>
		<stop  offset="0.3401" style="stop-color:#62BAB6"/>
		<stop  offset="0.4414" style="stop-color:#91DACC"/>
		<stop  offset="0.5686" style="stop-color:#00AA8B"/>
		<stop  offset="0.6505" style="stop-color:#00A689"/>
		<stop  offset="0.7299" style="stop-color:#009A83"/>
		<stop  offset="0.8085" style="stop-color:#00877A"/>
		<stop  offset="0.8864" style="stop-color:#006B6D"/>
		<stop  offset="0.9632" style="stop-color:#00495C"/>
		<stop  offset="1" style="stop-color:#003552"/>
	</linearGradient>
	<path style="fill:url(#SVGID_18_);" d="M311.328,197.72c-1,0.43-2.04,0.85-3.14,1.27c-11.62,4.35-27,7.14-42.29,9.22
		c-4.06-6.77-11.39-11.01-19.44-11.01c-0.9,0-1.8,0.06-2.69,0.16c-2.64-9.65-11.48-16.69-21.84-16.69
		c-11.34,0-20.77,8.37-22.42,19.26c-1.85-0.37-3.74-0.56-5.65-0.56c-15.14,0-27.57,11.81-28.59,26.7c-2.64,0.83-5.21,1.69-7.71,2.6
		v-13.83c0-4.3,1.02-8.38,3.05-12.14c1.18-2.21,2.69-4.24,4.49-6.04c4.85-4.86,11.31-7.54,18.18-7.54c5.4,0,10.63-2.26,14.33-6.19
		c3.72-3.96,5.6-9.13,5.26-14.56c-1.31-21.06-0.11-42.17,3.55-62.82c10.32,2.02,20.8,3.04,31.3,3.04c10.49,0,20.98-1.02,31.3-3.04
		c3.66,20.69,4.86,41.8,3.55,62.83c-0.03,0.41-0.04,0.84-0.04,1.22c0,10.76,8.8,19.52,19.62,19.52c0.48,0,0.96,0.02,1.38,0.03
		C300.418,189.52,306.808,192.65,311.328,197.72z M255.748,153.31c4.14-2.9,6.67-7.64,6.67-12.88c0-8.7-7.07-15.77-15.76-15.77
		s-15.76,7.07-15.76,15.77c0,0.02,0,0.05,0,0.07c-6.56,2.81-11.02,9.33-11.02,16.69c0,10.01,8.14,18.15,18.14,18.15
		c10.01,0,18.15-8.14,18.15-18.15C256.168,155.88,256.028,154.58,255.748,153.31z"/>
	<linearGradient id="SVGID_19_" gradientUnits="userSpaceOnUse" x1="206.4483" y1="51.07" x2="268.9783" y2="51.07">
		<stop  offset="0" style="stop-color:#ED1C24"/>
		<stop  offset="0.1372" style="stop-color:#E81B23"/>
		<stop  offset="0.303" style="stop-color:#D91A21"/>
		<stop  offset="0.4837" style="stop-color:#C1171D"/>
		<stop  offset="0.6749" style="stop-color:#9F1318"/>
		<stop  offset="0.8723" style="stop-color:#730E12"/>
		<stop  offset="1" style="stop-color:#530A0D"/>
	</linearGradient>
	<path style="fill:url(#SVGID_19_);" d="M268.198,25.56l0.78,47.24c-20.48,5.04-42.05,5.04-62.53,0l0.77-47.24
		c8.05,4.2,20.75,6.21,30.5,6.21C247.458,31.77,260.158,29.76,268.198,25.56z"/>
	<path d="M262.418,140.43c0,5.24-2.53,9.98-6.67,12.88c0.28,1.27,0.42,2.57,0.42,3.88c0,10.01-8.14,18.15-18.15,18.15
		c-10,0-18.14-8.14-18.14-18.15c0-7.36,4.46-13.88,11.02-16.69c0-0.02,0-0.05,0-0.07c0-8.7,7.07-15.77,15.76-15.77
		S262.418,131.73,262.418,140.43z M249.458,147.65c3.02-1.17,4.96-4,4.96-7.22c0-4.28-3.48-7.77-7.76-7.77s-7.76,3.49-7.76,7.77
		c0,0.61,0.08,1.24,0.25,1.91c0.27,1.06,0.09,2.19-0.49,3.12c-0.59,0.93-1.53,1.57-2.61,1.78c-4.74,0.94-8.17,5.12-8.17,9.95
		c0,5.6,4.55,10.15,10.14,10.15c5.6,0,10.15-4.55,10.15-10.15c0-1.43-0.3-2.83-0.9-4.16c-0.46-1-0.48-2.14-0.06-3.16
		C247.618,148.85,248.438,148.05,249.458,147.65z"/>
	<linearGradient id="SVGID_20_" gradientUnits="userSpaceOnUse" x1="252.9526" y1="0.6545" x2="222.4838" y2="31.1233">
		<stop  offset="0" style="stop-color:#ED1C24"/>
		<stop  offset="0.1372" style="stop-color:#E81B23"/>
		<stop  offset="0.303" style="stop-color:#D91A21"/>
		<stop  offset="0.4837" style="stop-color:#C1171D"/>
		<stop  offset="0.6749" style="stop-color:#9F1318"/>
		<stop  offset="0.8723" style="stop-color:#730E12"/>
		<stop  offset="1" style="stop-color:#530A0D"/>
	</linearGradient>
	<path style="fill:url(#SVGID_20_);" d="M237.718,8c16.8,0,29.25,5.46,30.3,7.89c-1.05,2.42-13.5,7.88-30.3,7.88
		c-16.81,0-29.25-5.46-30.3-7.88C208.468,13.46,220.908,8,237.718,8z"/>
	<linearGradient id="SVGID_21_" gradientUnits="userSpaceOnUse" x1="241.1483" y1="167.34" x2="241.1483" y2="132.66">
		<stop  offset="0" style="stop-color:#006D94"/>
		<stop  offset="0.1822" style="stop-color:#00688D"/>
		<stop  offset="0.4405" style="stop-color:#00597B"/>
		<stop  offset="0.7426" style="stop-color:#00405D"/>
		<stop  offset="1" style="stop-color:#00273D"/>
	</linearGradient>
	<path style="fill:url(#SVGID_21_);" d="M254.418,140.43c0,3.22-1.94,6.05-4.96,7.22c-1.02,0.4-1.84,1.2-2.25,2.22
		c-0.42,1.02-0.4,2.16,0.06,3.16c0.6,1.33,0.9,2.73,0.9,4.16c0,5.6-4.55,10.15-10.15,10.15c-5.59,0-10.14-4.55-10.14-10.15
		c0-4.83,3.43-9.01,8.17-9.95c1.08-0.21,2.02-0.85,2.61-1.78c0.58-0.93,0.76-2.06,0.49-3.12c-0.17-0.67-0.25-1.3-0.25-1.91
		c0-4.28,3.48-7.77,7.76-7.77S254.418,136.15,254.418,140.43z"/>
	<linearGradient id="SVGID_22_" gradientUnits="userSpaceOnUse" x1="173.6883" y1="206.13" x2="256.7183" y2="206.13">
		<stop  offset="0" style="stop-color:#006D94"/>
		<stop  offset="0.1822" style="stop-color:#00688D"/>
		<stop  offset="0.4405" style="stop-color:#00597B"/>
		<stop  offset="0.7426" style="stop-color:#00405D"/>
		<stop  offset="1" style="stop-color:#00273D"/>
	</linearGradient>
	<path style="fill:url(#SVGID_22_);" d="M246.458,205.2c3.91,0,7.57,1.56,10.26,4.19c-5.37,0.65-10.63,1.24-15.61,1.79
		c-9.54,1.06-17.78,1.97-23.84,3.04c-14.07,2.48-29.38,5.46-43.58,9.37c2.04-9.26,10.3-16.22,20.17-16.22
		c2.75,0,5.43,0.54,7.96,1.59c1.31,0.55,2.8,0.36,3.94-0.49c1.13-0.85,1.73-2.23,1.57-3.64c-0.05-0.45-0.07-0.95-0.07-1.49
		c0-8.09,6.58-14.67,14.67-14.67c7.72,0,14.13,6.04,14.61,13.76c0.07,1.24,0.72,2.37,1.76,3.07c1.03,0.69,2.32,0.87,3.5,0.47
		C243.318,205.46,244.888,205.2,246.458,205.2z"/>
	<path d="M231.468,264.28c0.47,2.16-0.91,4.29-3.07,4.75c-4.88,1.05-9.05,3.94-11.75,8.12c-2.71,4.19-3.62,9.18-2.56,14.06
		c0.06,0.28,0.09,0.57,0.09,0.85c0,1.84-1.29,3.5-3.16,3.9c-0.29,0.06-0.57,0.09-0.85,0.09c-1.84,0-3.5-1.28-3.9-3.16
		c-2.17-10.06-12.12-16.48-22.18-14.31c-2.16,0.47-4.29-0.91-4.76-3.07c-0.46-2.16,0.91-4.29,3.07-4.75
		c9.34-2.02,18.61,1.15,24.8,7.56c0.69-1.91,1.6-3.76,2.73-5.51c3.86-5.98,9.82-10.1,16.79-11.6
		C228.878,260.74,231.008,262.12,231.468,264.28z"/>
	<linearGradient id="SVGID_23_" gradientUnits="userSpaceOnUse" x1="98.3224" y1="130.9546" x2="183.5709" y2="180.1729">
		<stop  offset="0" style="stop-color:#3BAD5B"/>
		<stop  offset="0.1886" style="stop-color:#38A857"/>
		<stop  offset="0.4066" style="stop-color:#2F9A4D"/>
		<stop  offset="0.6392" style="stop-color:#20833C"/>
		<stop  offset="0.8805" style="stop-color:#0C6325"/>
		<stop  offset="1" style="stop-color:#005017"/>
	</linearGradient>
	<path style="fill:url(#SVGID_23_);" d="M173.478,159.38c3.79,7.05,6.99,14.34,9.54,21.75c-8.92,0.06-17.28,3.56-23.58,9.87
		c-1.33,1.33-2.52,2.76-3.6,4.27c-11.32-6.98-22.53-11.06-32.63-13.36c-19.16-38.02-12.93-67.31-10.08-76.6
		C122.758,108.08,151.988,119.48,173.478,159.38z"/>
	<g>
		<linearGradient id="SVGID_24_" gradientUnits="userSpaceOnUse" x1="317.1933" y1="270.79" x2="317.1933" y2="279.04">
			<stop  offset="0" style="stop-color:#00AA8B"/>
			<stop  offset="0.5029" style="stop-color:#005D66"/>
			<stop  offset="0.798" style="stop-color:#003552"/>
		</linearGradient>
		<path style="fill:url(#SVGID_24_);" d="M317.868,279.04v-8.25c-0.22,2.3-0.66,4.57-1.35,6.77
			C316.988,278.04,317.428,278.53,317.868,279.04z"/>
		<linearGradient id="SVGID_25_" gradientUnits="userSpaceOnUse" x1="311.2683" y1="236.52" x2="311.2683" y2="264.62">
			<stop  offset="0" style="stop-color:#00AA8B"/>
			<stop  offset="0.5029" style="stop-color:#005D66"/>
			<stop  offset="0.798" style="stop-color:#003552"/>
		</linearGradient>
		<path style="fill:url(#SVGID_25_);" d="M310.928,239.18c-2,0.7-4.09,1.38-6.26,2.05c7.42,5.52,12.31,14.02,13.2,23.39v-28.1
			C315.678,237.43,313.358,238.32,310.928,239.18z"/>
		<linearGradient id="SVGID_26_" gradientUnits="userSpaceOnUse" x1="161.5083" y1="270.26" x2="161.5083" y2="281.22">
			<stop  offset="0" style="stop-color:#00AA8B"/>
			<stop  offset="0.5029" style="stop-color:#005D66"/>
			<stop  offset="0.798" style="stop-color:#003552"/>
		</linearGradient>
		<path style="fill:url(#SVGID_26_);" d="M157.558,272.69v8.53c2.4-1.9,5.05-3.48,7.9-4.66c-0.88-2-1.45-4.11-1.69-6.3
			C161.528,271.07,159.448,271.87,157.558,272.69z"/>
	</g>
	<linearGradient id="SVGID_27_" gradientUnits="userSpaceOnUse" x1="88.5083" y1="218.3537" x2="151.9883" y2="218.3537">
		<stop  offset="0" style="stop-color:#3BAD5B"/>
		<stop  offset="0.1762" style="stop-color:#37A757"/>
		<stop  offset="0.4134" style="stop-color:#2C964A"/>
		<stop  offset="0.6853" style="stop-color:#1A7A35"/>
		<stop  offset="0.981" style="stop-color:#025319"/>
		<stop  offset="1" style="stop-color:#005017"/>
	</linearGradient>
	<path style="fill:url(#SVGID_27_);" d="M151.988,202.3c-1.59,3.96-2.43,8.23-2.43,12.54v17.01c-11.48,5.03-19.96,10.86-25.57,17.6
		c-27.38-22.38-33.98-51.56-35.48-61.59c5.31-0.65,16.12-1.33,29.39,1.18c0.04,0.07,0.08,0.14,0.11,0.21l0.27-0.14
		C128.538,191.09,140.228,194.99,151.988,202.3z"/>
	<path d="M143.278,47.88c0.12,1.52-0.63,2.97-1.94,3.75l-9.3,5.57l-0.69,10.83c-0.1,1.52-1.05,2.85-2.46,3.43
		c-0.49,0.21-1.02,0.31-1.53,0.31c-0.95,0-1.89-0.34-2.64-0.99l-8.17-7.13l-10.5,2.69c-1.48,0.38-3.04-0.11-4.03-1.27
		c-0.99-1.16-1.24-2.77-0.64-4.17l4.25-9.98l-5.8-9.16c-0.82-1.29-0.83-2.93-0.04-4.23c0.8-1.3,2.26-2.03,3.77-1.9l10.81,0.97
		l6.92-8.35c0.97-1.17,2.52-1.69,4-1.34c1.48,0.35,2.64,1.52,2.98,3l2.42,10.57l10.08,4C142.178,45.04,143.158,46.36,143.278,47.88z
		 M126.128,51.42l4.15-2.49l-4.5-1.79c-1.22-0.48-2.13-1.54-2.42-2.82l-1.08-4.73l-3.09,3.73c-0.85,1.02-2.14,1.56-3.44,1.44
		l-4.83-0.44l2.6,4.1c0.7,1.11,0.81,2.5,0.3,3.71l-1.91,4.45l4.7-1.2c0.32-0.08,0.66-0.12,0.99-0.12c0.95,0,1.89,0.34,2.63,0.98
		l3.65,3.19l0.31-4.84C124.268,53.28,124.998,52.09,126.128,51.42z"/>
	<linearGradient id="SVGID_28_" gradientUnits="userSpaceOnUse" x1="110.9183" y1="49.51" x2="130.2783" y2="49.51">
		<stop  offset="0" style="stop-color:#ED1C24"/>
		<stop  offset="0.1372" style="stop-color:#E81B23"/>
		<stop  offset="0.303" style="stop-color:#D91A21"/>
		<stop  offset="0.4837" style="stop-color:#C1171D"/>
		<stop  offset="0.6749" style="stop-color:#9F1318"/>
		<stop  offset="0.8723" style="stop-color:#730E12"/>
		<stop  offset="1" style="stop-color:#530A0D"/>
	</linearGradient>
	<path style="fill:url(#SVGID_28_);" d="M130.278,48.93l-4.15,2.49c-1.13,0.67-1.86,1.86-1.94,3.17l-0.31,4.84l-3.65-3.19
		c-0.74-0.64-1.68-0.98-2.63-0.98c-0.33,0-0.67,0.04-0.99,0.12l-4.7,1.2l1.91-4.45c0.51-1.21,0.4-2.6-0.3-3.71l-2.6-4.1l4.83,0.44
		c1.3,0.12,2.59-0.42,3.44-1.44l3.09-3.73l1.08,4.73c0.29,1.28,1.2,2.34,2.42,2.82L130.278,48.93z"/>
</g>
</svg>